Coordinates
version=1
nRows=8
nColumns=63
inDegrees=yes

Units are S.I. units (second, meters, Newtons, ...)
If the header above contains a line with 'inDegrees', this indicates whether rotational values are in degrees (yes) or radians (no).

endheader
time	pelvis_tilt	pelvis_list	pelvis_rotation	pelvis_tx	pelvis_ty	pelvis_tz	hip_flexion_r	hip_adduction_r	hip_rotation_r	knee_angle_r	knee_angle_r_beta	ankle_angle_r	subtalar_angle_r	mtp_angle_r	hip_flexion_l	hip_adduction_l	hip_rotation_l	knee_angle_l	knee_angle_l_beta	ankle_angle_l	subtalar_angle_l	mtp_angle_l	L5_S1_Flex_Ext	L5_S1_Lat_Bending	L5_S1_axial_rotation	L4_L5_Flex_Ext	L4_L5_Lat_Bending	L4_L5_axial_rotation	L3_L4_Flex_Ext	L3_L4_Lat_Bending	L3_L4_axial_rotation	L2_L3_Flex_Ext	L2_L3_Lat_Bending	L2_L3_axial_rotation	L1_L2_Flex_Ext	L1_L2_Lat_Bending	L1_L2_axial_rotation	L1_T12_Flex_Ext	L1_T12_Lat_Bending	L1_T12_axial_rotation	Abs_r3	Abs_r2	Abs_r1	Abs_t1	Abs_t2	neck_flexion	neck_bending	neck_rotation	arm_flex_r	arm_add_r	arm_rot_r	elbow_flex_r	pro_sup_r	wrist_flex_r	wrist_dev_r	arm_flex_l	arm_add_l	arm_rot_l	elbow_flex_l	pro_sup_l	wrist_flex_l	wrist_dev_l
4.200000	2.944713	1.931180	97.507084	0.269305	0.888982	0.544302	-9.287166	2.284039	-2.070104	4.092185	0.071422	26.611846	-2.269108	0.000000	-7.502708	-5.749974	-4.491952	5.468094	0.095436	30.609610	14.601398	0.000000	-0.002095	0.363777	-0.070796	-0.003891	0.483823	-0.075221	-0.003442	0.884488	-0.075221	-0.002394	0.884488	-0.061947	-0.001946	0.741814	-0.057522	-0.001197	0.563491	-0.053097	-0.014965	4.115119	-0.393748	0.000000	0.000000	22.075217	-2.300447	-1.518581	-0.008476	-52.230050	-67.032642	56.636470	87.955847	-33.114219	7.166698	182.484719	-125.052860	132.129158	61.906147	46.079088	-24.052215	-11.190334
4.216667	2.947323	1.744340	97.444248	0.269046	0.889067	0.545238	-8.881392	2.198794	-2.461137	4.393485	0.076681	26.763813	-1.730320	0.000000	-7.188609	-5.677806	-4.714031	5.561911	0.097074	30.581237	14.651635	0.000000	0.006980	0.381570	-0.053279	0.012963	0.507488	-0.056609	0.011468	0.927748	-0.056609	0.007978	0.927748	-0.046619	0.006482	0.778097	-0.043289	0.003989	0.591051	-0.039959	0.049859	4.316392	-0.296321	0.000000	0.000000	22.300107	-2.505523	-0.789520	-0.357490	-52.176770	-66.452950	56.709209	88.511746	-30.803317	10.233748	183.448058	-125.610324	133.623516	61.134137	42.971723	-22.480982	-9.792477
4.233333	2.904188	1.517083	97.338407	0.268936	0.889143	0.546309	-8.381099	2.065508	-2.769672	4.813691	0.084015	26.912364	-1.276817	0.000000	-6.822730	-5.554207	-4.979046	5.678158	0.099103	30.551136	14.679631	0.000000	0.017859	0.393396	-0.010150	0.033166	0.523217	-0.010785	0.029341	0.956504	-0.010785	0.020411	0.956504	-0.008882	0.016584	0.802214	-0.008247	0.010205	0.609371	-0.007613	0.127565	4.450180	-0.056453	0.000000	0.000000	22.532887	-2.767484	-0.139280	-1.114832	-51.805004	-66.109089	57.126262	89.322360	-27.925229	13.657574	184.569763	-125.918561	135.928087	60.433048	41.328382	-19.540283	-7.598203
4.250000	2.843575	1.273021	97.187347	0.268922	0.889205	0.547475	-7.829052	1.910332	-2.939979	5.307836	0.092639	27.017915	-0.979271	0.000000	-6.441747	-5.407528	-5.274694	5.791645	0.101083	30.529205	14.679310	0.000000	0.027889	0.402440	0.057644	0.051793	0.535246	0.061247	0.045819	0.978494	0.061247	0.031874	0.978494	0.050438	0.025898	0.820657	0.046836	0.015936	0.623380	0.043233	0.199208	4.552487	0.320598	0.000000	0.000000	22.752163	-3.078115	0.381551	-2.346959	-51.101366	-65.897089	57.957864	89.814715	-24.588419	17.220023	185.655446	-125.989161	139.097990	60.139844	38.152965	-14.541309	-5.200804
4.266667	2.764314	1.015407	96.976347	0.269005	0.889233	0.548710	-7.221620	1.724322	-3.055917	5.889592	0.102793	27.132149	-0.697241	0.000000	-6.050483	-5.235213	-5.601052	5.909991	0.103149	30.521285	14.633996	0.000000	0.036961	0.408168	0.157453	0.068640	0.542863	0.167294	0.060723	0.992420	0.167294	0.042243	0.992420	0.137771	0.034322	0.832336	0.127930	0.021120	0.632252	0.118090	0.264009	4.617279	0.875705	0.000000	0.000000	22.949660	-3.448667	0.733086	-4.127208	-50.070814	-65.746250	59.217584	89.648165	-20.953904	20.437168	186.639659	-125.871368	142.951706	60.329746	35.072542	-8.489373	-2.479240
4.283333	2.675942	0.752915	96.717186	0.269176	0.889206	0.549949	-6.576075	1.520285	-3.175422	6.545831	0.114246	27.283039	-0.360138	0.000000	-5.663177	-5.052322	-5.957004	6.027672	0.105203	30.540416	14.576756	0.000000	0.044489	0.410798	0.269443	0.082621	0.546361	0.286283	0.073092	0.998813	0.286283	0.050847	0.998813	0.235763	0.041313	0.837699	0.218923	0.025421	0.636326	0.202082	0.317783	4.647025	1.498562	0.000000	0.000000	23.121108	-3.827435	0.983111	-6.293672	-48.744257	-65.436420	60.986853	88.437366	-16.910846	23.259616	187.193811	-125.616109	146.918021	61.093985	35.442629	-3.252996	0.993323
4.300000	2.578252	0.501329	96.424609	0.269417	0.889123	0.551158	-5.926568	1.298054	-3.327604	7.246815	0.126481	27.466597	0.060495	0.000000	-5.299632	-4.861355	-6.300397	6.138792	0.107142	30.581547	14.484507	0.000000	0.048968	0.409617	0.391970	0.090939	0.544791	0.416468	0.080450	0.995943	0.416468	0.055966	0.995943	0.342973	0.045472	0.835291	0.318475	0.027980	0.634497	0.293977	0.349776	4.633669	2.180017	0.000000	0.000000	23.259880	-4.208551	1.079142	-8.723576	-47.152842	-65.038413	63.159886	86.931919	-12.305757	25.162710	187.371698	-125.283469	151.017170	62.503602	37.904520	1.587889	5.091123
4.316667	2.470872	0.266900	96.098632	0.269742	0.888985	0.552293	-5.290351	1.057947	-3.538603	7.976383	0.139214	27.691542	0.612910	0.000000	-4.972473	-4.662109	-6.609267	6.237906	0.108872	30.633983	14.336262	0.000000	0.050619	0.403740	0.521200	0.094005	0.536975	0.553775	0.083162	0.981654	0.553775	0.057852	0.981654	0.456050	0.047005	0.823307	0.423475	0.028924	0.625394	0.390900	0.361566	4.567192	2.898758	0.000000	0.000000	23.356737	-4.551643	1.022560	-11.302793	-45.328684	-64.551528	65.669664	85.373262	-7.103299	25.907860	187.215464	-124.923770	155.186308	64.518663	41.964450	6.007086	9.376634
